<?xml version="1.0" encoding="utf-8"?>
<!-- Generator: Adobe Illustrator 18.1.0, SVG Export Plug-In . SVG Version: 6.00 Build 0)  -->
<!DOCTYPE svg PUBLIC "-//W3C//DTD SVG 1.1//EN" "http://www.w3.org/Graphics/SVG/1.1/DTD/svg11.dtd">
<svg version="1.1" id="Layer_1" xmlns="http://www.w3.org/2000/svg" xmlns:xlink="http://www.w3.org/1999/xlink" x="0px" y="0px"
	 viewBox="-507 509 8 8" enable-background="new -507 509 8 8" xml:space="preserve">
<linearGradient id="SVGID_1_" gradientUnits="userSpaceOnUse" x1="-506.6005" y1="509.3938" x2="-502.0099" y2="514.6915">
	<stop  offset="0" style="stop-color:#727272"/>
	<stop  offset="3.660655e-02" style="stop-color:#6C6C6C"/>
	<stop  offset="0.3466" style="stop-color:#3E3E3E"/>
	<stop  offset="0.6216" style="stop-color:#1C1C1C"/>
	<stop  offset="0.8488" style="stop-color:#070707"/>
	<stop  offset="1" style="stop-color:#000000"/>
</linearGradient>
<path fill="url(#SVGID_1_)" d="M-507,509v2h7v-2H-507z M-507,512v4.9c0,0.1,0,0.1,0.1,0.1h6.8c0.1,0,0.1,0,0.1-0.1V512H-507
	L-507,512z M-506,513h1v1h-1V513z M-504,513h1v1h-1V513z M-502,513h1v1h-1V513z M-506,515h1v1h-1V515z M-504,515h1v1h-1V515z"/>
</svg>
