<?xml version="1.0" encoding="utf-8"?>
<!-- Generator: Adobe Illustrator 18.1.0, SVG Export Plug-In . SVG Version: 6.00 Build 0)  -->
<!DOCTYPE svg PUBLIC "-//W3C//DTD SVG 1.1//EN" "http://www.w3.org/Graphics/SVG/1.1/DTD/svg11.dtd">
<svg version="1.1" id="Layer_1" xmlns="http://www.w3.org/2000/svg" xmlns:xlink="http://www.w3.org/1999/xlink" x="0px" y="0px"
	 viewBox="-486 488 50 50" enable-background="new -486 488 50 50" xml:space="preserve">
<linearGradient id="SVGID_1_" gradientUnits="userSpaceOnUse" x1="-477.6661" y1="478.9637" x2="-451.0726" y2="520.1199">
	<stop  offset="0" style="stop-color:#909090"/>
	<stop  offset="0.3818" style="stop-color:#545454"/>
	<stop  offset="0.8001" style="stop-color:#181818"/>
	<stop  offset="1" style="stop-color:#000000"/>
</linearGradient>
<path fill="url(#SVGID_1_)" d="M-449.5,515.8l0.3-0.3l-2.7-4c-5.4,5.1-11.4,10.1-16.2,13.5l3.7,9.8l-2.6,2.6l-4.7-10
	c-2.7,1.7-4.7,2.4-5.4,1.7c-0.7-0.7,0.1-2.6,1.7-5.4l-10-4.7l2.6-2.6l9.8,3.7c3.4-4.8,8.4-10.8,13.5-16.2l-4-2.8l-0.3,0.3
	c-0.5,0.5-1.8,0.1-2.9-1c-0.8-0.8-1.2-1.7-1.2-2.4l-8.3-5.8l7.2-2.6l6.9,2.3l2.1-2.1c0.5-0.5,1.8-0.1,2.9,1c1.1,1.1,1.5,2.4,1,2.9
	l-0.2,0.2l5.1,1.7c8-7.2,12.2-8.3,14-6.5c1.8,1.8,0.7,6-6.5,14l1.7,5.1l0.2-0.2c0.5-0.5,1.8-0.1,2.9,1c1.1,1.1,1.5,2.4,1,2.9
	l-2.1,2.1l2.3,6.9l-2.6,7.2l-5.8-8.3c-0.6,0.1-1.6-0.4-2.4-1.2C-449.6,517.7-450.1,516.4-449.5,515.8z"/>
</svg>
